<svg width="451" height="326" viewBox="0 0 451 326" fill="none" xmlns="http://www.w3.org/2000/svg">
<path d="M289.691 173.725C321.125 162.957 354.109 156.05 384.275 142.533C414.441 129.015 442.678 106.595 448.05 80.529C452.733 57.8345 439.03 37.1185 419.318 23.347C365.464 -14.4107 264.175 -1.85476 210.46 49.1682C189.592 68.9912 175.22 93.418 149.704 109.284C117.278 129.464 73.3013 131.731 42.1018 153.187C11.5338 174.197 1.66511 207.987 2.17048 237.603C2.5765 261.814 8.75878 285.898 25.8627 303.949C37.594 316.333 56.0476 325.81 77.1152 323.46C105.835 320.256 127.738 297.382 141.95 275.95C175.951 224.63 222.628 196.702 289.691 173.725Z" fill="#6F5D32" stroke="#B5964D" stroke-opacity="0.04" stroke-width="3" stroke-miterlimit="10"/>
</svg>
