<svg width="29" height="29" viewBox="0 0 29 29" fill="none" xmlns="http://www.w3.org/2000/svg">
<g clip-path="url(#clip0_1857_2824)">
<path fill-rule="evenodd" clip-rule="evenodd" d="M11.4904 21.2132L4.86131 14.5841C4.7441 14.4669 4.67825 14.3079 4.67825 14.1421C4.67825 13.9764 4.7441 13.8174 4.86131 13.7002L11.4904 7.07108C11.7345 6.827 12.1302 6.827 12.3743 7.07108C12.6184 7.31516 12.6184 7.71089 12.3743 7.95496L6.81214 13.5171H22.9809C23.3261 13.5171 23.6059 13.797 23.6059 14.1421C23.6059 14.4873 23.3261 14.7671 22.9809 14.7671L6.81214 14.7671L12.3743 20.3293C12.6184 20.5734 12.6184 20.9691 12.3743 21.2132C12.1302 21.4573 11.7345 21.4573 11.4904 21.2132Z" fill="#B5964D"/>
</g>
<defs>
<clipPath id="clip0_1857_2824">
<rect width="20" height="20" fill="white" transform="translate(14.1421) rotate(45)"/>
</clipPath>
</defs>
</svg>
