<svg width="1440" height="1024" viewBox="0 0 1440 1024" fill="none" xmlns="http://www.w3.org/2000/svg">
<g opacity="0.6">
<path d="M833.952 548.128C900.968 525.171 971.291 510.447 1035.6 481.628C1099.92 452.808 1160.12 405.01 1171.57 349.437C1181.55 301.053 1152.34 256.887 1110.31 227.527C995.498 147.028 779.551 173.796 665.032 282.576C620.54 324.838 589.901 376.915 535.501 410.742C466.37 453.765 372.612 458.597 306.095 504.34C240.925 549.133 219.885 621.172 220.963 684.313C221.829 735.931 235.009 787.278 271.475 825.761C296.486 852.165 335.829 872.368 380.744 867.358C441.975 860.528 488.67 811.762 518.971 766.069C591.461 656.656 690.975 597.115 833.952 548.128Z" stroke="#B5964D" stroke-opacity="0.32" stroke-width="3" stroke-miterlimit="10"/>
<path d="M184.516 710.898C185.272 764.417 199.957 817.425 238.37 856.84C264.71 883.854 305.474 904.224 352.028 899.756C417.332 893.527 469.52 845.572 505.173 799.129C527.358 769.979 552.695 742.179 580.84 716.109C594.291 703.723 608.203 691.955 622.575 680.803C684.444 632.577 758.273 599.498 847.577 569.552C877.861 559.384 909.04 550.089 939.413 540.211C981.315 526.699 1026.21 509.412 1057.47 489.12C1062.44 485.906 1067.12 482.779 1071.72 479.558C1078.32 474.89 1084.7 470.012 1091.43 464.688C1111.34 449.108 1130.39 432.843 1148.51 415.958C1179.57 386.36 1203.03 351.48 1205.52 316.012C1209.14 265.282 1174.71 222.226 1127.2 195.22C1094.83 176.962 1056.88 165.045 1015.82 160.256C973.404 155.211 928.259 157.502 882.438 164.419C795.18 177.613 707.554 210.033 644.661 264.616C595.969 306.799 560.556 359.645 503.141 395.526C430.018 441.3 333.465 450.546 271.042 502.449C246.742 522.596 231.506 547.118 218.665 573.318C197.243 617.117 184.011 665.58 184.516 710.898Z" stroke="#B5964D" stroke-opacity="0.32" stroke-width="3" stroke-miterlimit="10"/>
<path d="M149 737.358C149.533 792.811 165.831 847.448 206.187 887.768C233.888 915.406 276.04 935.995 324.236 932.068C393.635 926.415 451.336 879.241 492.343 832.045C518.165 802.203 546.379 773.566 576.767 746.354C591.406 733.274 606.354 720.745 621.612 708.767C688.184 656.026 767.116 622.167 862.237 590.645C897.29 579.086 933.736 567.91 968.613 555.871C1015.88 539.457 1069.2 515.772 1097.09 489.351C1101.48 485.187 1105.36 481.257 1109.06 477.226C1114.32 471.427 1119.27 465.484 1125.06 458.887C1140.43 441.278 1162.18 420.297 1182.57 399.177C1216.18 364.045 1242.19 322.738 1240.63 282.329C1238.59 229.375 1198.32 187.332 1145.26 162.621C1109.1 145.986 1067.83 136.073 1024.03 133.5C978.596 130.715 931.105 135.989 882.199 144.175C788.986 159.763 694.863 190.978 625.287 246.625C572.362 288.882 532.067 342.492 471.458 380.623C394.338 429.15 295.026 443.371 236.529 500.83C212.464 524.487 200.267 552.584 187.776 582.335C167.206 631.885 148.496 686.088 149 737.358Z" stroke="#B5964D" stroke-opacity="0.32" stroke-width="3" stroke-miterlimit="10"/>
<path d="M111.36 764.142C111.766 821.553 129.68 877.842 171.941 919.043C200.974 947.295 244.581 968.064 294.371 964.692C367.932 959.575 431.096 913.354 477.47 865.28C506.869 834.795 537.976 805.294 570.67 776.892C586.447 763.185 602.4 749.905 618.528 737.053C689.786 679.822 773.918 645.154 874.716 612.356C914.584 599.391 956.26 586.384 995.578 572.065C1048.2 552.874 1110.09 522.626 1134.39 490.088C1137.95 485.325 1141.17 480.437 1144.04 475.452C1148.03 468.518 1151.56 461.51 1156.41 453.64C1169.21 432.689 1192.21 407.56 1214.2 382.861C1250.36 342.232 1279.19 294.498 1273.25 249.129C1266.13 193.968 1219.59 152.899 1160.85 130.5C1120.96 115.457 1076.41 107.498 1029.85 107.094C981.394 106.628 931.662 114.892 879.524 124.294C780.384 142.286 679.774 172.333 603.504 229.01C546.761 271.173 501.498 325.517 437.797 365.807C356.679 417.088 254.871 436.635 200.089 499.319C176.262 526.582 167.134 558.105 155.084 591.281C135.104 646.997 111.117 706.919 111.36 764.142Z" stroke="#B5964D" stroke-opacity="0.32" stroke-width="3" stroke-miterlimit="10"/>
<path d="M74.8337 790.89C75.0639 850.258 94.4461 908.177 138.702 950.27C169.085 979.176 214.076 1000.29 265.6 997.297C343.194 992.917 411.675 947.293 463.654 898.479C497.322 866.933 531.286 836.425 565.651 807.377C582.633 793.02 599.634 778.948 616.654 765.16C692.722 703.278 781.938 668.031 888.446 633.73C933.137 619.357 980.093 604.564 1023.85 587.926C1081.92 565.826 1152.3 529.197 1173.02 490.476C1176.01 484.855 1178.46 479.12 1180.36 473.325C1183.06 465.245 1185.17 457.171 1189.06 448.052C1199.42 423.613 1223.66 394.479 1247.29 366.245C1286.06 320.097 1317.87 266.017 1307.4 215.588C1295.49 158.196 1242.35 118.072 1177.91 98.0414C1134.31 84.5713 1086.47 78.5553 1037.09 80.334C985.637 82.138 933.429 93.3427 878.235 104.063C773.193 124.448 666.133 153.355 583.153 211.073C522.429 253.257 472.212 308.259 405.456 350.798C320.351 404.854 216.257 429.977 164.896 497.667C141.413 528.647 135.135 563.49 123.526 600.194C103.889 662.064 74.5986 727.642 74.8337 790.89Z" stroke="#B5964D" stroke-opacity="0.32" stroke-width="3" stroke-miterlimit="10"/>
<path d="M38.3072 817.715C38.3924 879.056 59.3225 938.605 105.603 981.665C137.345 1011.17 183.806 1032.47 236.923 1030.05C318.661 1026.32 392.541 981.447 450.02 931.786C486.973 899.898 524.02 868.398 560.824 837.963C578.975 822.941 596.956 808.157 614.767 793.61C695.555 727.258 790.083 691.127 902.417 655.328C951.909 639.536 1004.17 622.93 1052.35 603.998C1115.8 579.15 1194.8 536.022 1211.91 491.103C1214.35 484.577 1216.04 477.975 1216.97 471.385C1217.96 461.825 1219.65 452.233 1222.02 442.659C1229.85 414.82 1255.25 381.524 1280.67 349.806C1322.04 298.16 1357.13 237.677 1341.81 182.263C1325.24 122.517 1265.31 83.4667 1195.37 65.7809C1148.05 53.9132 1096.89 49.8293 1044.65 53.7494C990.19 57.8843 935.608 72.0375 877.31 84.0294C766.308 106.823 652.845 134.614 562.91 193.29C498.229 235.508 442.897 291.338 372.982 335.902C283.791 392.864 177.58 423.725 129.475 496.239C106.403 530.996 102.965 569.126 91.7555 609.315C72.9206 677.063 38.1674 748.47 38.3072 817.715Z" stroke="#B5964D" stroke-opacity="0.32" stroke-width="3" stroke-miterlimit="10"/>
<path d="M1.6348 844.533C1.6394 907.807 24.0506 969.026 72.3421 1013.02C105.425 1043.14 153.319 1064.68 208.12 1062.72C293.964 1059.68 373.221 1015.48 436.235 965.082C476.503 932.864 516.586 900.385 555.848 868.536C575.147 852.843 594.231 837.295 612.917 821.89C698.403 750.996 798.043 714.258 916.127 676.964C970.442 659.823 1027.98 641.393 1080.63 620.151C1149.56 592.366 1237.13 542.812 1250.58 491.77C1252.44 484.336 1253.36 476.885 1253.32 469.535C1252.86 458.897 1253.32 448.133 1254.71 437.319C1260.03 406.091 1286.66 368.69 1313.78 333.454C1357.74 276.272 1396.16 209.273 1375.96 148.958C1355.2 86.8719 1288.18 48.8749 1212.35 33.493C1161.36 23.2176 1106.9 21.0821 1051.8 27.1978C994.436 33.5739 937.437 50.7892 876.061 63.9668C759.128 89.182 639.273 115.892 542.507 175.51C473.905 217.71 413.445 274.334 340.434 321.043C247.291 380.673 139.371 417.329 94.2045 494.647C71.6609 533.225 71.0986 574.591 60.165 618.284C41.9472 692.325 1.75662 769.318 1.6348 844.533Z" stroke="#B5964D" stroke-opacity="0.32" stroke-width="3" stroke-miterlimit="10"/>
<path d="M-37.9722 876.15C-38.084 941.407 -14.1728 1004.27 36.0898 1049.15C70.5254 1079.93 119.863 1101.73 176.282 1100.27C266.233 1097.93 350.885 1054.38 419.35 1003.31C462.933 970.761 506.07 937.279 547.773 904.043C568.25 887.688 588.372 871.364 607.902 855.143C698.134 779.692 803.017 742.269 926.822 703.469C985.967 684.919 1048.69 664.73 1105.88 641.138C1180.15 610.619 1276.35 554.599 1286.19 497.295C1287.5 488.925 1287.65 480.608 1286.66 472.493C1285.46 461.058 1283.29 449.783 1284.38 436.848C1287.19 402.195 1315.05 360.687 1343.89 321.908C1390.45 259.227 1432.41 185.663 1407.11 120.495C1382.11 56.0476 1307.87 19.0978 1226.31 6.23329C1171.67 -2.43931 1113.91 -2.64935 1055.93 5.61373C995.535 14.1519 936.289 34.1393 871.69 48.7057C748.796 76.3311 622.608 101.981 518.933 162.543C446.371 204.936 380.987 262.17 304.745 311.006C207.595 373.379 98.0127 415.974 55.6635 497.956C33.7373 540.387 35.8575 584.952 25.2881 632.181C7.6054 712.164 -37.813 794.914 -37.9722 876.15Z" stroke="#B5964D" stroke-opacity="0.32" stroke-width="3" stroke-miterlimit="10"/>
<path d="M-71.3763 898.252C-71.6338 965.482 -46.2041 1029.96 6.0525 1075.8C41.8478 1107.17 92.6104 1129.28 150.684 1128.25C244.772 1126.62 334.773 1083.75 408.7 1031.78C455.616 998.873 501.79 964.415 545.952 929.764C567.607 912.749 588.677 895.689 609.159 878.586C704.266 798.657 814.199 760.509 943.861 720.221C1007.85 700.298 1075.91 678.208 1137.52 652.382C1217.29 618.936 1322.1 556.439 1328.21 493.05C1328.94 483.752 1328.32 474.585 1326.35 465.731C1323.86 453.148 1320.27 440.805 1320.42 426.595C1320.72 388.552 1349.9 343.067 1380.28 300.583C1429.48 232.448 1475.19 152.295 1444.55 82.2506C1415.41 15.386 1333.96 -20.4548 1246.77 -31.0771C1188.48 -38.1409 1127.42 -36.4227 1066.53 -26.0056C1003.04 -14.9717 941.35 8.06773 873.608 23.8599C744.9 53.9494 612.388 78.5754 501.734 140.022C425.247 182.558 354.649 240.392 275.447 291.391C174.253 356.557 63.2168 405.009 23.4962 491.714C2.20602 537.973 6.99821 585.7 -3.2362 636.455C-20.1803 722.616 -71.0919 811.027 -71.3763 898.252Z" stroke="#B5964D" stroke-opacity="0.32" stroke-width="3" stroke-miterlimit="10"/>
<path d="M-107.863 925.225C-108.2 994.388 -81.2596 1060.55 -27.0027 1107.28C10.1155 1139.3 62.3214 1161.68 122.031 1161.12C220.255 1160.2 315.641 1117.94 395.194 1065.26C445.444 1032 494.654 996.567 541.268 960.565C564.123 942.874 586.219 925.055 607.553 907.107C707.26 822.566 822.507 783.79 957.82 741.939C1026.65 720.641 1099.97 696.692 1165.98 668.558C1251.15 632.399 1364.56 563.423 1367.05 493.734C1367.2 483.507 1365.8 473.491 1362.89 463.898C1359.13 450.178 1354.08 436.757 1353.32 421.282C1351.08 379.837 1381.45 330.101 1413.63 284.264C1465.45 210.602 1514.74 123.735 1478.97 48.985C1445.7 -20.4555 1356.83 -55.2257 1264.14 -63.5003C1202.22 -68.9729 1137.84 -65.3152 1074.04 -52.6997C1007.49 -39.4158 943.464 -13.3787 872.6 3.7119C737.831 36.144 598.979 59.7712 481.421 122.101C401.094 164.712 325.333 223.23 243.035 276.373C137.817 344.309 25.4079 398.712 -11.7828 490.071C-32.2382 540.296 -25.0045 591.198 -34.8201 645.413C-51.2566 737.764 -107.497 831.866 -107.863 925.225Z" stroke="#B5964D" stroke-opacity="0.32" stroke-width="3" stroke-miterlimit="10"/>
<path d="M-144.582 951.976C-145.018 1023.1 -116.607 1090.89 -60.386 1138.56C-21.8974 1171.21 31.7514 1193.86 93.1141 1193.75C195.427 1193.55 296.18 1151.93 381.316 1098.51C434.971 1064.73 486.669 1028.87 536.172 991.079C560.184 972.741 583.402 954.112 605.653 935.386C710.117 846.324 830.56 806.878 971.63 763.47C1045.26 740.814 1123.94 715.133 1194.36 684.667C1285.02 645.704 1407.05 570.127 1405.8 494.378C1405.34 483.198 1403.17 472.313 1399.32 461.962C1394.25 447.121 1387.81 432.643 1386.06 415.906C1381.35 371.057 1412.9 317.191 1446.83 267.821C1501.25 188.659 1554.33 95.0905 1513.17 15.6114C1475.94 -56.2782 1379.85 -89.7787 1281.28 -95.5881C1215.69 -99.5226 1147.95 -93.9784 1081.17 -79.2098C1011.58 -63.6036 945.179 -34.6155 871.183 -16.2628C730.454 18.5799 585.379 41.2507 460.801 104.418C376.722 147.137 295.828 206.348 210.387 261.651C101.056 332.323 -12.5217 392.654 -47.2469 488.707C-66.7984 542.699 -57.1954 596.876 -66.7189 654.73C-82.3635 752.925 -143.951 852.742 -144.582 951.976Z" stroke="#B5964D" stroke-opacity="0.32" stroke-width="3" stroke-miterlimit="10"/>
<path d="M-181.057 978.732C-181.621 1051.8 -151.698 1121.27 -93.4952 1169.86C-53.6474 1203.11 1.4371 1226.09 64.4238 1226.41C170.92 1226.91 276.981 1185.91 367.655 1131.75C424.651 1097.64 479.308 1060.87 531.267 1021.67C556.457 1002.68 580.696 983.296 603.691 963.686C712.901 870.066 838.568 829.961 985.347 785.012C1063.85 760.992 1147.77 733.476 1222.71 700.648C1318.81 658.86 1449.39 576.879 1444.53 494.867C1443.47 482.766 1440.54 471.043 1435.79 459.955C1429.4 443.955 1421.53 428.409 1418.87 410.407C1411.62 362.156 1444.45 304.328 1480.03 251.295C1537.29 166.656 1594.02 66.2702 1547.42 -17.8367C1506.21 -92.3094 1402.71 -124.579 1298.38 -128.003C1229.24 -130.298 1158.26 -122.779 1088.62 -105.783C1016.03 -87.9049 947.241 -55.9402 870.112 -36.3253C723.434 0.964453 572.125 22.6424 440.557 86.6584C352.459 129.547 266.462 189.303 177.809 246.708C64.5243 320.205 -50.231 386.27 -82.6874 487.138C-101.312 544.968 -89.3509 602.385 -98.4006 663.623C-113.437 768.077 -180.355 873.585 -181.057 978.732Z" stroke="#B5964D" stroke-opacity="0.32" stroke-width="3" stroke-miterlimit="10"/>
<path d="M-217.744 1005.72C-218.406 1080.74 -186.873 1151.71 -126.808 1201.33C-85.6079 1235.24 -29.0984 1258.52 35.6775 1259.29C146.237 1260.6 257.68 1220.13 353.92 1165.24C414.259 1130.73 471.925 1093.01 526.428 1052.38C552.767 1032.71 578.073 1012.56 601.93 992.114C715.839 893.952 846.732 853.187 999.249 806.708C1082.56 781.304 1171.86 751.996 1251.18 716.826C1352.68 672.201 1491.96 583.676 1483.5 495.631C1481.78 482.518 1477.95 469.887 1472.09 458.036C1464.43 440.899 1455.11 424.275 1451.5 404.997C1441.77 353.33 1475.89 291.293 1513.11 234.842C1572.97 144.702 1633.59 37.5237 1581.52 -51.1858C1536.3 -128.252 1425.26 -159.334 1315.38 -160.297C1242.64 -161.011 1168.34 -151.568 1095.75 -132.383C1020.16 -112.172 949.02 -77.2452 868.73 -56.3792C716.12 -16.6682 558.522 4.09209 419.969 68.8945C327.987 111.97 236.853 172.321 145.193 231.902C28.1145 308.155 -87.7547 380.073 -117.909 485.607C-135.577 547.287 -121.268 607.907 -129.964 672.646C-144.532 783.243 -216.797 894.466 -217.744 1005.72Z" stroke="#B5964D" stroke-opacity="0.32" stroke-width="3" stroke-miterlimit="10"/>
<path d="M-254.355 1032.57C-255.086 1109.56 -222.155 1182.26 -160.143 1232.7C-117.584 1267.19 -59.6683 1290.8 6.64307 1291.97C121.585 1294.11 238.237 1254.19 340.117 1198.47C403.753 1163.61 464.396 1124.95 521.407 1082.88C548.925 1062.55 575.251 1041.66 599.97 1020.36C718.625 917.643 854.707 876.27 1012.88 828.325C1101.07 801.558 1195.54 770.356 1279.37 732.921C1386.35 685.48 1534.22 590.536 1521.97 496.187C1519.78 482.156 1515.33 468.675 1508.72 456.061C1499.75 437.801 1489.08 420.008 1484.47 399.592C1472.19 344.523 1507.57 278.352 1546.5 218.357C1609.05 122.587 1673.55 8.70181 1615.95 -84.6321C1566.79 -164.297 1448.45 -194.042 1332.75 -192.676C1256.41 -191.802 1178.79 -180.423 1103.26 -159.03C1024.6 -136.507 951.134 -98.6425 867.74 -76.5031C709.17 -34.3805 545.167 -14.5798 399.765 51.0275C303.899 94.291 207.626 155.237 112.871 216.963C-8.40392 296.019 -125.194 373.573 -153.301 484.129C-169.918 549.63 -153.356 613.483 -161.687 681.76C-175.638 798.396 -253.234 915.31 -254.355 1032.57Z" stroke="#B5964D" stroke-opacity="0.32" stroke-width="3" stroke-miterlimit="10"/>
<path d="M-290.952 1059.44C-291.726 1138.31 -257.422 1212.83 -193.237 1264.12C-149.354 1299.27 -89.9849 1323.18 -22.0021 1324.77C96.728 1327.59 218.908 1288.24 326.235 1231.92C393.163 1196.7 456.804 1157.09 516.356 1113.58C545.081 1092.6 572.417 1070.92 597.997 1048.79C721.38 941.533 862.706 899.476 1026.71 849.875C1119.67 821.774 1219.44 788.722 1307.75 748.976C1420.15 698.674 1576.68 597.235 1560.71 496.774C1557.89 481.839 1552.64 467.545 1545.07 454.232C1534.81 434.824 1522.67 416.075 1517.19 394.281C1502.39 335.785 1538.85 265.452 1579.61 202.018C1644.63 100.729 1713.25 -20.023 1650.12 -117.92C1597.02 -200.218 1471.26 -228.732 1349.8 -224.882C1269.84 -222.473 1188.87 -209.195 1110.34 -185.61C1028.85 -160.75 952.962 -119.858 866.436 -96.4566C701.923 -51.949 531.752 -32.9253 379.272 33.3377C279.552 76.7985 178.129 138.302 80.261 202.198C-45.0084 284.032 -162.834 367.436 -188.751 482.713C-204.327 551.998 -185.578 619.124 -193.448 690.909C-206.732 813.568 -289.344 936.095 -290.952 1059.44Z" stroke="#B5964D" stroke-opacity="0.32" stroke-width="3" stroke-miterlimit="10"/>
<path d="M-327.586 1086.32C-328.342 1167.2 -292.619 1243.26 -226.519 1295.52C-181.315 1331.31 -120.474 1355.5 -50.8389 1357.54C72.0189 1361.13 199.562 1322.33 312.456 1265.27C382.658 1229.71 449.304 1189.17 511.417 1144.23C540.894 1122.92 569.157 1100.54 596.088 1077.17C724.247 965.369 870.749 922.668 1040.51 871.51C1138.31 842.034 1243.35 807.121 1336.12 765.089C1453.94 711.986 1619.09 604.041 1599.46 497.391C1596.04 481.52 1590 466.378 1581.5 452.331C1569.97 431.786 1556.37 411.959 1549.95 388.888C1532.65 327.002 1570.49 252.614 1612.82 185.581C1680.53 78.8582 1753.08 -48.8358 1684.35 -151.291C1627.35 -236.299 1494.12 -263.442 1366.96 -257.184C1283.45 -253.167 1199.22 -237.948 1117.78 -212.162C1033.12 -185.057 954.859 -141.213 865.183 -116.524C694.741 -69.5935 518.318 -51.5376 358.746 15.6645C255.172 59.3231 148.49 121.538 47.6372 187.425C-81.6121 271.916 -200.341 361.09 -224.19 481.204C-238.667 554.296 -217.701 624.706 -225.229 699.956C-237.873 828.725 -325.841 957.03 -327.586 1086.32Z" stroke="#B5964D" stroke-opacity="0.32" stroke-width="3" stroke-miterlimit="10"/>
<path d="M-364.217 1113.17C-365.071 1196 -327.848 1273.72 -259.735 1326.9C-213.117 1363.21 -150.931 1387.86 -79.6534 1390.31C47.3055 1394.65 180.232 1356.38 298.676 1298.62C372.129 1262.73 441.769 1221.26 506.435 1174.88C537.054 1152.94 566.349 1129.81 594.179 1105.6C727.056 989.233 878.768 945.897 1054.24 893.197C1156.92 862.358 1267.2 825.608 1364.45 781.264C1487.7 725.298 1661.76 610.818 1638.14 498.055C1634.13 481.244 1627.34 465.25 1617.92 450.461C1605.08 428.793 1590.05 407.898 1582.7 383.587C1562.87 318.272 1601.89 239.851 1645.98 169.221C1716.27 57.0197 1792.86 -77.6738 1718.55 -184.581C1657.63 -272.249 1516.92 -298.146 1384.08 -289.443C1297.02 -283.872 1209.5 -266.739 1125.12 -238.752C1037.36 -209.381 956.731 -162.451 864.024 -136.589C687.619 -87.247 504.917 -70.0722 338.448 -2.20999C231.048 41.6575 119.282 104.232 15.1292 172.447C-118.189 259.819 -237.816 354.704 -259.526 479.715C-272.885 556.588 -249.713 630.248 -256.923 709.051C-268.968 843.886 -362.298 977.873 -364.217 1113.17Z" stroke="#B5964D" stroke-opacity="0.32" stroke-width="3" stroke-miterlimit="10"/>
<path d="M-401.315 1140.3C-402.278 1225.05 -363.543 1304.44 -293.478 1358.53C-245.544 1395.55 -181.938 1420.4 -108.931 1423.28C22.1391 1428.43 160.399 1390.68 284.442 1332.21C361.132 1296 433.767 1253.58 500.984 1205.75C532.792 1183.13 563.154 1159.2 591.908 1134.1C729.532 1013.17 886.529 969.455 1067.62 914.924C1175.17 882.881 1290.7 844.101 1392.4 797.47C1521.07 738.703 1703.76 617.717 1676.46 498.79C1672.4 480.657 1663.88 464.514 1653.93 448.652C1639.8 425.837 1623.35 403.873 1615.05 378.286C1592.74 309.59 1633.03 226.948 1678.77 152.875C1751.76 35.2398 1832.34 -106.436 1752.41 -217.939C1687.57 -308.292 1539.41 -332.844 1400.82 -321.718C1310.17 -314.569 1219.32 -295.494 1131.98 -265.269C1041.26 -233.579 958.3 -183.808 862.341 -156.568C679.975 -104.815 490.977 -88.4964 317.559 -19.8994C206.15 24.1731 89.3198 87.4969 -17.8624 157.816C-155.252 247.971 -275.728 348.55 -295.403 478.449C-307.596 559.089 -282.303 636.062 -288.964 718.406C-300.573 859.277 -399.295 999.093 -401.315 1140.3Z" stroke="#B5964D" stroke-opacity="0.32" stroke-width="3" stroke-miterlimit="10"/>
<path d="M-437.446 1166.93C-438.527 1253.67 -398.322 1334.69 -326.246 1389.71C-276.972 1427.35 -211.725 1452.6 -137.192 1455.69C-2.09539 1461.7 141.565 1424.45 271.12 1365.33C351.059 1328.78 426.721 1285.4 496.542 1236.11C529.473 1212.85 560.838 1188.17 590.449 1162.21C732.83 1036.76 895.023 992.371 1081.9 936.294C1194.28 902.902 1315.08 862.295 1421.19 813.455C1555.35 751.723 1746.6 624.33 1715.67 499.224C1711.04 480.175 1701.51 463.152 1690.82 446.568C1675.42 422.614 1657.63 399.615 1648.3 372.72C1623.45 300.621 1664.98 213.87 1712.38 136.328C1787.87 13.1822 1872.64 -135.439 1787.03 -251.363C1718.25 -344.411 1562.62 -367.654 1418.42 -354.184C1324.19 -345.457 1230.02 -324.447 1139.72 -292.001C1045.97 -258.011 960.645 -205.288 861.535 -176.76C673.257 -122.609 477.934 -107.157 297.567 -37.8237C182.272 6.59517 60.3848 70.191 -49.9102 142.681C-191.305 235.579 -312.63 341.854 -330.29 476.668C-341.318 561.074 -313.885 641.336 -320.251 727.16C-331.198 874.214 -435.209 1019.61 -437.446 1166.93Z" stroke="#B5964D" stroke-opacity="0.32" stroke-width="3" stroke-miterlimit="10"/>
<path d="M-474.154 1193.76C-475.158 1282.75 -434.313 1363.76 -359.541 1421.07C-308.984 1459.3 -242.42 1484.85 -166.214 1488.61C-26.953 1495.34 122.06 1458.61 257.201 1398.73C340.346 1361.87 419.005 1317.57 491.4 1266.84C525.485 1242.95 557.887 1217.51 588.397 1190.7C735.495 1060.68 902.796 1015.59 1095.53 958.026C1212.75 923.26 1338.82 880.792 1449.46 829.564C1588.94 765.121 1788.9 631.156 1754.27 499.91C1749.06 479.911 1738.7 462.133 1727.02 444.642C1710.29 419.591 1691 395.466 1680.8 367.352C1653.46 291.836 1696.25 200.987 1745.37 119.838C1823.44 -8.78543 1912.35 -164.434 1821.03 -284.791C1748.52 -380.495 1585.24 -402.653 1435.28 -386.441C1337.52 -376.168 1240.07 -353.203 1146.87 -318.469C1050.13 -282.17 962.385 -226.48 860.172 -196.678C665.962 -140.105 464.314 -125.52 276.987 -55.4882C157.892 -10.9484 30.781 53.3069 -82.6087 127.941C-227.944 223.542 -350.021 335.483 -365.816 475.316C-375.648 563.5 -346.104 647.039 -352.193 736.369C-362.342 889.368 -471.674 1040.49 -474.154 1193.76Z" stroke="#B5964D" stroke-opacity="0.32" stroke-width="3" stroke-miterlimit="10"/>
<path d="M-510.743 1220.68C-511.71 1311.62 -469.633 1394.3 -392.772 1452.5C-340.785 1491.38 -272.844 1517.24 -194.942 1521.34C-51.5864 1528.88 102.785 1492.34 243.567 1432.06C329.914 1394.83 411.602 1349.6 486.657 1297.45C521.898 1272.91 555.335 1246.71 586.732 1219.03C738.588 1084.49 911.163 1038.73 1109.56 979.637C1231.6 943.487 1362.95 899.133 1478.03 845.644C1623 778.361 1831.52 637.931 1793.25 500.506C1787.47 479.591 1776.29 460.935 1763.83 442.772C1745.78 416.563 1725.05 391.395 1714.01 362.011C1684.12 283.093 1728.16 188.11 1778.97 103.467C1859.62 -30.6336 1952.66 -193.309 1855.67 -318.087C1779.15 -416.668 1608.54 -437.402 1452.77 -418.665C1351.37 -406.878 1250.54 -382 1154.31 -345.026C1054.53 -306.44 964.407 -247.7 859.116 -216.712C658.945 -157.729 450.982 -143.976 256.722 -73.2363C124.73 -24.7464 -0.549235 37.9974 -115.133 113C-264.546 211.445 -387.512 329.032 -401.146 473.735C-409.823 565.65 -378.173 652.528 -383.918 745.323C-393.468 904.546 -508.161 1061.35 -510.743 1220.68Z" stroke="#B5964D" stroke-opacity="0.32" stroke-width="3" stroke-miterlimit="10"/>
<path d="M-547.372 1247.55C-548.322 1340.44 -505 1424.81 -426.02 1483.88C-372.682 1523.42 -303.366 1549.59 -223.922 1554.02C-76.486 1562.35 83.2349 1526.48 229.552 1465.36C319.081 1427.81 403.762 1381.62 481.396 1328.01C517.774 1302.84 552.23 1275.87 584.502 1247.33C741.105 1108.23 918.93 1061.72 1123.01 1001.17C1249.98 963.681 1386.51 917.493 1506.08 861.667C1656.38 791.549 1873.61 644.606 1831.68 501.027C1825.35 479.171 1813.32 459.687 1799.95 440.774C1780.63 413.427 1758.52 387.115 1746.4 356.499C1714.08 274.087 1759.25 175.121 1811.8 86.9066C1895.16 -52.8502 1992.21 -222.438 1889.56 -351.602C1809.08 -452.827 1630.8 -472.192 1469.6 -451.108C1364.66 -437.751 1260.53 -410.966 1161.33 -371.809C1058.68 -330.87 966.18 -269.115 857.745 -236.9C651.596 -175.478 437.485 -162.528 236.177 -91.1203C109.336 -46.1356 -28.176 19.1663 -147.696 98.1112C-301.005 199.404 -424.893 322.533 -436.566 472.227C-444.011 567.869 -410.152 658.093 -415.591 754.405C-424.619 919.697 -544.633 1082.23 -547.372 1247.55Z" stroke="#B5964D" stroke-opacity="0.32" stroke-width="3" stroke-miterlimit="10"/>
<path d="M-584.013 1274.41C-584.922 1369.27 -540.352 1455.33 -459.262 1515.29C-404.594 1555.42 -333.855 1582.04 -252.596 1586.85C-101.098 1596.16 64.0567 1560.63 215.914 1498.78C308.655 1460.94 396.357 1413.81 476.574 1358.71C514.126 1332.87 549.636 1305.11 582.813 1275.67C744.146 1132.04 927.143 1084.95 1136.96 1022.87C1268.64 983.99 1410.54 936.011 1534.59 877.873C1690.41 804.925 1916.17 651.504 1870.56 501.759C1863.65 478.952 1850.81 458.663 1836.54 438.937C1815.9 410.467 1792.32 383.163 1779.34 351.205C1744.4 265.491 1790.9 162.289 1845.18 70.5038C1931.14 -74.7562 2032.37 -251.326 1923.94 -384.919C1839.59 -488.906 1653.94 -506.795 1486.91 -483.382C1378.44 -468.404 1271.04 -439.672 1168.9 -398.307C1062.94 -355.141 968.14 -290.535 856.382 -257C644.3 -193.156 423.92 -181.052 215.602 -108.933C84.8866 -63.7265 -57.6898 2.16464 -180.284 83.0686C-337.763 187.333 -462.349 316.051 -471.982 470.732C-478.194 570.101 -442.364 663.647 -447.33 763.504C-455.727 934.872 -581.103 1103.08 -584.013 1274.41Z" stroke="#B5964D" stroke-opacity="0.32" stroke-width="3" stroke-miterlimit="10"/>
<path d="M-620.672 1301.3C-621.532 1398.1 -575.73 1485.84 -492.567 1546.69C-436.411 1587.48 -364.348 1614.34 -281.32 1619.63C-125.84 1629.66 44.7375 1594.7 202.086 1532.13C298.009 1493.99 388.724 1445.93 471.541 1389.36C510.172 1362.9 546.66 1334.43 580.691 1304.18C746.741 1155.97 934.952 1108.19 1150.59 1044.52C1287 1004.22 1434.29 954.422 1562.77 894.023C1723.99 818.263 1958.39 658.309 1909.14 502.384C1901.66 478.662 1887.97 457.545 1872.8 437.043C1850.87 407.424 1825.86 379.053 1811.89 345.832C1774.46 256.702 1822.21 149.365 1878.14 54.1355C1966.72 -96.6533 2072.08 -280.251 1957.95 -418.24C1869.68 -524.984 1676.54 -541.441 1503.81 -515.617C1391.73 -499.135 1280.97 -468.503 1175.83 -424.912C1067.02 -379.419 969.841 -311.86 855.031 -276.968C637.007 -210.738 410.392 -199.212 195.064 -126.637C60.5211 -81.0634 -87.2037 -14.7741 -213.031 68.4162C-374.333 175.169 -499.671 309.554 -507.419 469.229C-512.399 572.324 -474.513 669.225 -479.077 772.569C-486.891 950.027 -617.618 1123.96 -620.672 1301.3Z" stroke="#B5964D" stroke-opacity="0.32" stroke-width="3" stroke-miterlimit="10"/>
<path d="M466.572 1420.03C506.407 1392.92 543.97 1363.66 578.917 1332.51C749.728 1179.78 943.107 1131.32 1164.49 1066.12C1305.88 1024.47 1458.31 972.825 1591.39 910.157C1758.08 831.521 2001.09 665.11 1948.14 503.043C1928.46 442.772 1870.15 398.811 1844.98 340.473C1805.04 247.949 1853.99 136.491 1911.69 37.6036C2002.9 -118.679 2112.39 -309.28 1992.56 -451.704C1900.41 -561.185 1699.76 -576.222 1521.31 -548.027C1405.69 -529.954 1291.63 -497.396 1183.52 -451.603C1071.64 -403.796 972.097 -333.249 854.143 -297.131C630.079 -228.486 397.08 -217.851 174.863 -144.424C-141.424 -39.9988 -532.554 174.783 -542.802 467.705C-546.523 574.54 -506.612 674.785 -510.824 781.632C-517.976 965.117 -654.065 1144.83 -657.225 1328.07C-660.169 1493.84 -518.543 1638.21 -310.275 1652.25C-52.6698 1669.78 247.257 1569.76 466.572 1420.03Z" stroke="#B5964D" stroke-opacity="0.32" stroke-width="3" stroke-miterlimit="10"/>
</g>
</svg>
