<svg width="32" height="32" viewBox="0 0 32 32" fill="none" xmlns="http://www.w3.org/2000/svg">
<path d="M16.2129 15.4932C16.1729 15.4932 16.1463 15.4932 16.1063 15.4932C16.0396 15.4798 15.9463 15.4798 15.8663 15.4932C11.9996 15.3732 9.07959 12.3332 9.07959 8.5865C9.07959 4.77317 12.1863 1.6665 15.9996 1.6665C19.8129 1.6665 22.9196 4.77317 22.9196 8.5865C22.9063 12.3332 19.9729 15.3732 16.2529 15.4932C16.2396 15.4932 16.2263 15.4932 16.2129 15.4932ZM15.9996 3.6665C13.2929 3.6665 11.0796 5.87984 11.0796 8.5865C11.0796 11.2532 13.1596 13.3998 15.8129 13.4932C15.8796 13.4798 16.0663 13.4798 16.2396 13.4932C18.8529 13.3732 20.9063 11.2265 20.9196 8.5865C20.9196 5.87984 18.7063 3.6665 15.9996 3.6665Z" fill="white"/>
<path d="M16.2261 30.0668C13.6128 30.0668 10.9861 29.4002 8.99948 28.0668C7.14615 26.8402 6.13281 25.1602 6.13281 23.3335C6.13281 21.5068 7.14615 19.8135 8.99948 18.5735C12.9995 15.9202 19.4795 15.9202 23.4528 18.5735C25.2928 19.8002 26.3195 21.4802 26.3195 23.3068C26.3195 25.1335 25.3061 26.8268 23.4528 28.0668C21.4528 29.4002 18.8395 30.0668 16.2261 30.0668ZM10.1061 20.2535C8.82615 21.1068 8.13281 22.2002 8.13281 23.3468C8.13281 24.4802 8.83948 25.5735 10.1061 26.4135C13.4261 28.6402 19.0261 28.6402 22.3461 26.4135C23.6261 25.5602 24.3195 24.4668 24.3195 23.3202C24.3195 22.1868 23.6128 21.0935 22.3461 20.2535C19.0261 18.0402 13.4261 18.0402 10.1061 20.2535Z" fill="white"/>
</svg>
