<svg width="32" height="32" viewBox="0 0 32 32" fill="none" xmlns="http://www.w3.org/2000/svg">
<path d="M6.66675 29.16C5.68009 29.16 4.70675 28.7867 3.96009 28.04C3.24009 27.32 2.84009 26.36 2.84009 25.3333C2.84009 24.3067 3.24009 23.3467 3.96009 22.6267L21.2934 5.29334C22.7868 3.80001 25.2134 3.80001 26.7068 5.29334C27.4268 6.01334 27.8268 6.97334 27.8268 8.00001C27.8268 9.02667 27.4268 9.98667 26.7068 10.7067L9.37342 28.04C8.62675 28.7867 7.65342 29.16 6.66675 29.16ZM24.0001 6.17334C23.5334 6.17334 23.0668 6.34667 22.7068 6.70667L5.37342 24.04C5.02675 24.3867 4.84009 24.84 4.84009 25.3333C4.84009 25.8267 5.02675 26.28 5.37342 26.6267C6.08009 27.3333 7.25342 27.3333 7.96009 26.6267L25.2934 9.29334C25.6401 8.94667 25.8268 8.49334 25.8268 8.00001C25.8268 7.50667 25.6401 7.05334 25.2934 6.70667C24.9334 6.34667 24.4668 6.17334 24.0001 6.17334Z" fill="#D9D9D9"/>
<path d="M24.0133 12.9867C23.7599 12.9867 23.5066 12.8933 23.3066 12.6933L19.3066 8.69332C18.9199 8.30666 18.9199 7.66666 19.3066 7.27999C19.6933 6.89332 20.3333 6.89332 20.7199 7.27999L24.7199 11.28C25.1066 11.6667 25.1066 12.3067 24.7199 12.6933C24.5199 12.8933 24.2666 12.9867 24.0133 12.9867Z" fill="#D9D9D9"/>
<path d="M13.3334 7.33332C13.2667 7.33332 13.2134 7.31999 13.1467 7.30665L11.3334 6.77332L9.52007 7.30665C9.28007 7.37332 9.02674 7.30665 8.86674 7.13332C8.6934 6.95999 8.62674 6.71999 8.6934 6.47999L9.22674 4.66665L8.6934 2.85332C8.62674 2.61332 8.6934 2.35999 8.86674 2.19999C9.04007 2.02665 9.2934 1.95999 9.52007 2.02665L11.3334 2.55999L13.1467 2.02665C13.3867 1.95999 13.6267 2.02665 13.8001 2.19999C13.9734 2.37332 14.0401 2.62665 13.9734 2.85332L13.4401 4.66665L13.9734 6.47999C14.0401 6.71999 13.9734 6.97332 13.8001 7.13332C13.6801 7.26665 13.5067 7.33332 13.3334 7.33332ZM11.3334 5.41332C11.4001 5.41332 11.4534 5.42665 11.5201 5.43999L12.3467 5.67999L12.1067 4.85332C12.0667 4.73332 12.0667 4.59999 12.1067 4.47999L12.3467 3.65332L11.5201 3.89332C11.4001 3.93332 11.2667 3.93332 11.1467 3.89332L10.3201 3.65332L10.5601 4.47999C10.6001 4.59999 10.6001 4.73332 10.5601 4.85332L10.3201 5.67999L11.1467 5.43999C11.2134 5.42665 11.2667 5.41332 11.3334 5.41332Z" fill="#D9D9D9"/>
<path d="M7.99991 15.3333C7.93324 15.3333 7.87991 15.32 7.81324 15.3067L5.99991 14.7733L4.18657 15.3067C3.94657 15.3733 3.70657 15.3067 3.53324 15.1333C3.35991 14.96 3.29324 14.7067 3.35991 14.48L3.89324 12.6667L3.35991 10.8533C3.29324 10.6133 3.35991 10.36 3.53324 10.2C3.70657 10.04 3.95991 9.95999 4.18657 10.0267L5.99991 10.56L7.81324 10.0267C8.03991 9.95999 8.29324 10.0267 8.46657 10.2C8.63991 10.3733 8.70657 10.6267 8.63991 10.8533L8.10657 12.6667L8.63991 14.48C8.70657 14.72 8.63991 14.9733 8.46657 15.1333C8.34657 15.2667 8.17324 15.3333 7.99991 15.3333ZM5.99991 13.4133C6.06657 13.4133 6.11991 13.4267 6.18657 13.44L7.01324 13.68L6.77324 12.8533C6.73324 12.7333 6.73324 12.6 6.77324 12.48L7.01324 11.6533L6.18657 11.8933C6.06657 11.9333 5.93324 11.9333 5.81324 11.8933L4.98657 11.6533L5.22657 12.48C5.26657 12.6 5.26657 12.7333 5.22657 12.8533L4.98657 13.68L5.81324 13.44C5.87991 13.4267 5.93324 13.4133 5.99991 13.4133Z" fill="#D9D9D9"/>
<path d="M27.9999 21.9999C27.9332 21.9999 27.8799 21.9866 27.8132 21.9733L25.9999 21.4399L24.1866 21.9733C23.9466 22.0399 23.7066 21.9733 23.5332 21.7999C23.3599 21.6266 23.2932 21.3733 23.3599 21.1466L23.8932 19.3333L23.3599 17.5199C23.2932 17.2799 23.3599 17.0266 23.5332 16.8666C23.7066 16.7066 23.9599 16.6266 24.1866 16.6933L25.9999 17.2266L27.8132 16.6933C28.0399 16.6266 28.2932 16.6933 28.4666 16.8666C28.6399 17.0399 28.7066 17.2933 28.6399 17.5199L28.1066 19.3333L28.6399 21.1466C28.7066 21.3866 28.6399 21.6399 28.4666 21.7999C28.3466 21.9333 28.1732 21.9999 27.9999 21.9999ZM25.9999 20.0799C26.0666 20.0799 26.1199 20.0933 26.1866 20.1066L27.0132 20.3466L26.7732 19.5199C26.7332 19.3999 26.7332 19.2666 26.7732 19.1466L27.0132 18.3199L26.1866 18.5599C26.0666 18.5999 25.9332 18.5999 25.8132 18.5599L24.9866 18.3199L25.2266 19.1466C25.2666 19.2666 25.2666 19.3999 25.2266 19.5199L24.9866 20.3466L25.8132 20.1066C25.8799 20.0933 25.9332 20.0799 25.9999 20.0799Z" fill="#D9D9D9"/>
</svg>
