<svg width="32" height="32" viewBox="0 0 32 32" fill="none" xmlns="http://www.w3.org/2000/svg">
<path d="M23.3867 12.08C21.0267 12.08 19.1067 10.16 19.1067 7.80002C19.1067 5.44002 21.0267 3.52002 23.3867 3.52002C25.7467 3.52002 27.6667 5.44002 27.6667 7.80002C27.6667 10.16 25.7467 12.08 23.3867 12.08ZM23.3867 5.50669C22.1333 5.50669 21.1067 6.53335 21.1067 7.78669C21.1067 9.04002 22.1333 10.0667 23.3867 10.0667C24.64 10.0667 25.6667 9.04002 25.6667 7.78669C25.6667 6.53335 24.64 5.50669 23.3867 5.50669Z" fill="white"/>
<path d="M8.61326 12.08C6.25326 12.08 4.33325 10.16 4.33325 7.80002C4.33325 5.44002 6.25326 3.52002 8.61326 3.52002C10.9733 3.52002 12.8932 5.44002 12.8932 7.80002C12.8932 10.16 10.9733 12.08 8.61326 12.08ZM8.61326 5.50669C7.35993 5.50669 6.33325 6.53335 6.33325 7.78669C6.33325 9.04002 7.35993 10.0667 8.61326 10.0667C9.86659 10.0667 10.8932 9.04002 10.8932 7.78669C10.8932 6.53335 9.87993 5.50669 8.61326 5.50669Z" fill="white"/>
<path d="M23.3867 28.4936C21.0267 28.4936 19.1067 26.5736 19.1067 24.2136C19.1067 21.8536 21.0267 19.9336 23.3867 19.9336C25.7467 19.9336 27.6667 21.8536 27.6667 24.2136C27.6667 26.5736 25.7467 28.4936 23.3867 28.4936ZM23.3867 21.9203C22.1333 21.9203 21.1067 22.9469 21.1067 24.2003C21.1067 25.4536 22.1333 26.4803 23.3867 26.4803C24.64 26.4803 25.6667 25.4536 25.6667 24.2003C25.6667 22.9469 24.64 21.9203 23.3867 21.9203Z" fill="white"/>
<path d="M8.61326 28.4936C6.25326 28.4936 4.33325 26.5736 4.33325 24.2136C4.33325 21.8536 6.25326 19.9336 8.61326 19.9336C10.9733 19.9336 12.8932 21.8536 12.8932 24.2136C12.8932 26.5736 10.9733 28.4936 8.61326 28.4936ZM8.61326 21.9203C7.35993 21.9203 6.33325 22.9469 6.33325 24.2003C6.33325 25.4536 7.35993 26.4803 8.61326 26.4803C9.86659 26.4803 10.8932 25.4536 10.8932 24.2003C10.8932 22.9469 9.87993 21.9203 8.61326 21.9203Z" fill="white"/>
</svg>
