<svg width="34" height="34" viewBox="0 0 34 34" fill="none" xmlns="http://www.w3.org/2000/svg">
<path d="M16.497 29.3734L16.4878 29.3685L16.4557 29.3511C16.4284 29.3362 16.3893 29.3148 16.3392 29.2869C16.2391 29.231 16.0951 29.1493 15.9134 29.0423C15.55 28.8286 15.0353 28.5139 14.4196 28.1046C13.1902 27.2873 11.5476 26.086 9.90051 24.5506C6.64107 21.5122 3.1875 16.9981 3.1875 11.4375C3.1875 7.28942 6.6776 4 10.8906 4C13.3682 4 15.5866 5.13204 17 6.90643C18.4134 5.13204 20.6318 4 23.1094 4C27.3224 4 30.8125 7.28942 30.8125 11.4375C30.8125 16.9981 27.3589 21.5122 24.0995 24.5506C22.4524 26.086 20.8098 27.2873 19.5804 28.1046C18.9647 28.5139 18.45 28.8286 18.0866 29.0423C17.9049 29.1493 17.7609 29.231 17.6608 29.2869C17.6107 29.3148 17.5716 29.3362 17.5443 29.3511L17.5122 29.3685L17.503 29.3734L17.4991 29.3755C17.1874 29.541 16.8126 29.541 16.5009 29.3755L16.497 29.3734Z" fill="#FF5500"/>
</svg>
