<svg width="120" height="120" viewBox="0 0 120 120" fill="none" xmlns="http://www.w3.org/2000/svg">
<path fill-rule="evenodd" clip-rule="evenodd" d="M34 20L33.8254 20C30.6743 19.9999 28.0593 19.9998 25.986 20.2786C23.8026 20.5721 21.8495 21.2154 20.2825 22.7825C18.7154 24.3495 18.0721 26.3026 17.7786 28.486C17.4998 30.5593 17.4999 33.1743 17.5 36.3254L17.5 36.5L17.5 85H12.5H10L10 87.5L10 94C10 97.3137 12.6863 100 16 100L104 100C107.314 100 110 97.3137 110 94L110 87.5L110 85H107.5H102.5L102.5 36.5V36.3253C102.5 33.1743 102.5 30.5593 102.221 28.486C101.928 26.3026 101.285 24.3495 99.7175 22.7825C98.1505 21.2154 96.1974 20.5721 94.014 20.2786C91.9407 19.9998 89.3257 19.9999 86.1746 20L86 20L34 20ZM97.5 85L97.5 36.5C97.5 33.1295 97.4947 30.8531 97.266 29.1522C97.047 27.5232 96.6652 26.8012 96.182 26.318C95.6988 25.8348 94.9768 25.453 93.3478 25.234C91.6469 25.0053 89.3705 25 86 25L34 25C30.6295 25 28.3531 25.0053 26.6522 25.234C25.0232 25.453 24.3012 25.8348 23.818 26.318C23.3348 26.8012 22.953 27.5232 22.734 29.1522C22.5053 30.8531 22.5 33.1295 22.5 36.5L22.5 85L97.5 85ZM15 94L15 90L105 90L105 94C105 94.5523 104.552 95 104 95L16 95C15.4477 95 15 94.5523 15 94Z" fill="#F5F5F5"/>
</svg>
