<svg width="48" height="18" viewBox="0 0 48 18" fill="none" xmlns="http://www.w3.org/2000/svg">
<path fill-rule="evenodd" clip-rule="evenodd" d="M4.77803 18C5.45286 13.0296 3.31318 8.96514 0 8.92272C3.31318 8.96514 6.54641 4.97037 7.22125 0C6.54641 4.97037 8.68609 9.03483 11.9993 9.07724C8.68609 9.03483 5.45286 13.0296 4.77803 18Z" fill="#D9D9D9"/>
<path fill-rule="evenodd" clip-rule="evenodd" d="M16.778 18C17.4529 13.0296 15.3132 8.96514 12 8.92272C15.3132 8.96514 18.5464 4.97037 19.2212 0C18.5464 4.97037 20.6861 9.03483 23.9993 9.07724C20.6861 9.03483 17.4529 13.0296 16.778 18Z" fill="#D9D9D9"/>
<path fill-rule="evenodd" clip-rule="evenodd" d="M28.7761 18C29.4509 13.0296 27.3112 8.96514 23.998 8.92272C27.3126 8.96514 30.5458 4.97037 31.2206 0C30.5458 4.97037 32.6855 9.03483 35.9987 9.07724C32.6855 9.03483 29.4523 13.0296 28.7774 18H28.7761Z" fill="#D9D9D9"/>
<path fill-rule="evenodd" clip-rule="evenodd" d="M40.7761 18C41.4509 13.0296 39.3112 8.96514 35.998 8.92272C39.3126 8.96514 42.5458 4.97037 43.2206 0C42.5458 4.97037 44.6855 9.03483 47.9987 9.07724C44.6855 9.03483 41.4523 13.0296 40.7774 18H40.7761Z" fill="#D9D9D9"/>
</svg>
