<svg width="120" height="120" viewBox="0 0 120 120" fill="none" xmlns="http://www.w3.org/2000/svg">
<path fill-rule="evenodd" clip-rule="evenodd" d="M84.7656 24.1524C84.9943 25.8532 85 28.1296 85 31.5V88.5C85 91.8705 84.9943 94.1468 84.7656 95.8477C84.574 97.273 84.2582 98.0041 83.8584 98.4883L83.6816 98.6816C83.1984 99.1648 82.4766 99.5466 80.8477 99.7656C79.1468 99.9943 76.8705 100 73.5 100H46.5C43.1296 100 40.8532 99.9943 39.1524 99.7656C37.5234 99.5466 36.8016 99.1648 36.3184 98.6816C35.8352 98.1984 35.4534 97.4766 35.2344 95.8477C35.0057 94.1468 35 91.8705 35 88.5V31.5C35 28.1296 35.0057 25.8532 35.2344 24.1524C35.4534 22.5234 35.8352 21.8016 36.3184 21.3184L36.5117 21.1416C36.9959 20.7418 37.727 20.426 39.1524 20.2344C40.8532 20.0057 43.1296 20 46.5 20H73.5C76.8705 20 79.1468 20.0057 80.8477 20.2344C82.4766 20.4534 83.1984 20.8352 83.6816 21.3184L83.8584 21.5117C84.2582 21.9959 84.574 22.727 84.7656 24.1524ZM90 88.6811L90 88.5V31.5L90 31.3189C90.0001 28.171 90.0002 25.5582 89.7217 23.4863C89.4465 21.4395 88.8637 19.5948 87.501 18.0811L87.2178 17.7822C85.6507 16.2152 83.6971 15.5719 81.5137 15.2783C79.4418 14.9998 76.8291 14.9999 73.6811 15L73.5 15H46.5L46.3189 15C43.171 14.9999 40.5582 14.9998 38.4863 15.2783C36.4395 15.5535 34.5948 16.1363 33.0811 17.499L32.7822 17.7822C31.2152 19.3493 30.5719 21.3029 30.2783 23.4863C29.9998 25.5582 29.9999 28.171 30 31.3189L30 31.5V88.5L30 88.6811C29.9999 91.8291 29.9998 94.4418 30.2783 96.5137C30.5719 98.6971 31.2152 100.651 32.7822 102.218C34.3493 103.785 36.3029 104.428 38.4863 104.722C40.5582 105 43.1709 105 46.3188 105H46.5H73.5H73.6812C76.8291 105 79.4419 105 81.5137 104.722C83.6971 104.428 85.6507 103.785 87.2178 102.218L87.501 101.919C88.8637 100.405 89.4465 98.5605 89.7217 96.5137C90.0002 94.4418 90.0001 91.8291 90 88.6811ZM60.0039 90.4998C61.9369 90.4998 63.5039 88.9328 63.5039 86.9998C63.5039 85.0668 61.9369 83.4998 60.0039 83.4998C58.0709 83.4998 56.5039 85.0668 56.5039 86.9998C56.5039 88.9328 58.0709 90.4998 60.0039 90.4998Z" fill="#F5F5F5"/>
</svg>
